<svg xmlns="http://www.w3.org/2000/svg" viewBox="0 0 230.9 147.81"><defs><style>.cls-1{opacity:0.75;}.cls-2{fill:#005146;}</style></defs><title>Asset 2</title><g id="Layer_2" data-name="Layer 2"><g id="Layer_6" data-name="Layer 6"><g class="cls-1"><path class="cls-2" d="M201.83.6c-.85,10.6,9,16.32,16.73,21.35C223,24.84,227.37,28,229,33.31s.05,11.11-2.83,15.72C220.53,58.11,208,63.19,207.9,75.24c-.14,12.25,11.6,21.82,9.5,34.32-1.18,7-7,11.87-9.68,18.23-2.85,6.7-1.14,14.15,3.15,19.81.38.5,1.45-.13,1-.69-4.26-5.6-5.84-13-2.76-19.57,2.55-5.4,7.1-9.69,8.91-15.47,3.77-12.06-6.56-21.88-8.6-33.1a17,17,0,0,1,.64-9,22.07,22.07,0,0,1,4.48-6.93c3.69-4.08,8.27-7.31,11.53-11.78,3-4.11,5.07-9.2,4.77-14.36-.31-5.34-3.29-9.69-7.47-12.84C215.31,17.76,202.07,12.61,203.05.4c0-.67-1.17-.42-1.22.2Z"/></g><g class="cls-1"><path class="cls-2" d="M29.06,147.21c.86-10.6-9-16.33-16.72-21.35C7.91,123,3.53,119.79,1.89,114.49s0-11.1,2.82-15.72C10.37,89.7,22.86,84.62,23,72.57c.14-12.25-11.6-21.82-9.5-34.32,1.18-7,7-11.87,9.67-18.23C26,13.32,24.32,5.87,20,.21c-.38-.5-1.44.13-1,.68,4.25,5.61,5.84,13,2.75,19.57-2.55,5.4-7.09,9.7-8.9,15.47C9.08,48,19.4,57.81,21.45,69a17,17,0,0,1-.65,9A22,22,0,0,1,16.33,85C12.63,89,8.05,92.27,4.79,96.74c-3,4.11-5.06,9.2-4.76,14.36.31,5.34,3.28,9.68,7.47,12.84,8.09,6.11,21.33,11.26,20.35,23.47-.06.67,1.16.42,1.21-.2Z"/></g></g></g></svg>