<svg xmlns="http://www.w3.org/2000/svg" viewBox="0 0 241.22 134.73"><defs><style>.cls-1{fill:#083f4b;}.cls-2{fill:#cde3d1;}</style></defs><title>ends</title><g id="Layer_2" data-name="Layer 2"><g id="Layer_7" data-name="Layer 7"><path class="cls-1" d="M236.18,3.87a1.31,1.31,0,0,1-1.17.85.72.72,0,0,1,.19-1,.74.74,0,0,1,1,.32A.71.71,0,1,1,235,4a.75.75,0,0,1,1.32.27.75.75,0,0,1-1.24.53.7.7,0,1,1,1.16-.12c.07.37-.54.6-.75.29a.49.49,0,0,1,.52-.69.55.55,0,0,1,.18.9.63.63,0,0,1-.94-.21"/><path class="cls-2" d="M235.46,3.67l0,.06.08-.18a1,1,0,0,1-.17.28l.12-.15a1.31,1.31,0,0,1-.23.24l.15-.12a1.49,1.49,0,0,1-.3.18l.18-.08a1.68,1.68,0,0,1-.32.09l.2,0H235l.65.37a.35.35,0,0,1-.08-.13l.07.18a1.21,1.21,0,0,1-.05-.18l0,.2a.67.67,0,0,1,0-.2l0,.2a.66.66,0,0,1,.06-.2l-.08.18a1,1,0,0,1,.1-.17l-.12.15a.52.52,0,0,1,.11-.1l-.15.11.13-.08-.18.08.17,0-.2,0a.6.6,0,0,1,.19,0l-.2,0a.66.66,0,0,1,.2.06l-.18-.08a1,1,0,0,1,.17.1l-.15-.12.12.12-.12-.15a.78.78,0,0,1,.11.2l-.07-.18a.75.75,0,0,1,0,.16l0-.2a.54.54,0,0,1,0,.18l0-.2a1.05,1.05,0,0,1-.05.19l.07-.17a.93.93,0,0,1-.11.19l.12-.15a.93.93,0,0,1-.14.14l.15-.12-.14.08.18-.07a.42.42,0,0,1-.16,0l.2,0h-.17l.2,0a.43.43,0,0,1-.14,0l.18.08-.16-.09.16.11a.67.67,0,0,1-.15-.14l.12.15a.64.64,0,0,1-.1-.18l.07.18a.65.65,0,0,1-.05-.2l0,.2a.54.54,0,0,1,0-.18l0,.2a.75.75,0,0,1,0-.16l-.08.18a.75.75,0,0,1,.07-.12l-.12.16a.57.57,0,0,1,.11-.11l-.15.12a.57.57,0,0,1,.13-.08l-.18.08.17,0-.2,0h.23l-.2,0a.86.86,0,0,1,.23.06l-.18-.07a.56.56,0,0,1,.17.09l-.15-.11a.74.74,0,0,1,.13.12l-.12-.15a.75.75,0,0,1,.07.12l-.08-.18a.58.58,0,0,1,0,.14l0-.2v.15l0-.2a.74.74,0,0,1,0,.14l.07-.18a.64.64,0,0,1-.08.14l.11-.15a.86.86,0,0,1-.13.14l.15-.12a.78.78,0,0,1-.2.11l.18-.07a.79.79,0,0,1-.22.06l.2,0a.61.61,0,0,1-.19,0l.2,0a.43.43,0,0,1-.16,0l.17.08-.12-.07.16.12-.1-.1.12.15a.57.57,0,0,1-.08-.13l.08.18a1,1,0,0,1-.05-.16l0,.2a.6.6,0,0,1,0-.19l0,.2a.79.79,0,0,1,.06-.22l-.07.18a.77.77,0,0,1,.1-.18l-.11.15a.8.8,0,0,1,.13-.13l-.15.11.13-.07-.18.07.15,0-.2,0h.15l-.2,0,.16,0-.18-.07a.51.51,0,0,1,.16.09l-.16-.12a1.06,1.06,0,0,1,.15.15l-.12-.15a.78.78,0,0,1,.11.18l-.08-.18a.6.6,0,0,1,.06.19l0-.2a.6.6,0,0,1,0,.19l0-.2a.74.74,0,0,1,0,.14l.07-.18-.06.14a.78.78,0,0,0,0,.5l0-.2v.09l0-.2a.64.64,0,0,1,0,.07l.07-.17a.25.25,0,0,1,0,.07l.12-.15a.27.27,0,0,1-.08.07l.16-.12-.12.08.18-.08-.14,0,.2,0a.24.24,0,0,1-.12,0l.2,0-.1,0,.18.08-.08,0,.15.12L236,4.48l.12.16a.35.35,0,0,1-.05-.08l.08.18,0-.09,0,.2v-.1l0,.2,0-.12-.07.18a.54.54,0,0,1,.07-.13L236,5a.52.52,0,0,1,.11-.1l-.16.12.11-.07-.18.08L236,5l-.2,0h.09l-.2,0,.11,0L235.65,5l.1.06-.16-.11.09.08-.12-.15.07.11-.08-.18a.47.47,0,0,1,0,.17l0-.2V4.9l0-.2a.83.83,0,0,1,0,.15l.07-.18a.27.27,0,0,1-.06.1l.12-.15-.08.08.15-.11-.11.06.18-.07a.7.7,0,0,1-.14,0l.2,0h-.17l.2,0a.58.58,0,0,1-.18,0l.18.07a.51.51,0,0,1-.16-.09l.15.12a.52.52,0,0,1-.1-.11l.11.15a.41.41,0,0,1,0-.09.82.82,0,0,0-.45-.35.78.78,0,0,0-.58.08.74.74,0,0,0-.34.45.84.84,0,0,0,.07.58,1.37,1.37,0,0,0,.18.24.28.28,0,0,0,.09.1,1.46,1.46,0,0,0,.53.3.27.27,0,0,0,.12,0,1.65,1.65,0,0,0,.31,0A1.31,1.31,0,0,0,237,5.18a1.42,1.42,0,0,0-.12-1,.21.21,0,0,0-.06-.1,1.3,1.3,0,0,0-.18-.23,1.15,1.15,0,0,0-.52-.28,1.2,1.2,0,0,0-1.12.33,1.23,1.23,0,0,0-.32.52.23.23,0,0,0,0,.11,1.09,1.09,0,0,0,0,.31,1.18,1.18,0,0,0,.09.38,1,1,0,0,0,.21.33,1.07,1.07,0,0,0,.48.29,1.22,1.22,0,0,0,.6,0l.12,0a1.2,1.2,0,0,0,.28-.13,1.15,1.15,0,0,0,.4-.42,1,1,0,0,0,.12-.37,1.09,1.09,0,0,0,0-.4l-.07.58a1.45,1.45,0,0,0,.17-.7,1.71,1.71,0,0,0-.2-.7,2.83,2.83,0,0,0-.2-.28l-.13-.13a1.4,1.4,0,0,0-.63-.32,1.26,1.26,0,0,0-.72,0,1.39,1.39,0,0,0-.56.36,1.51,1.51,0,0,0-.42,1.12,1.27,1.27,0,0,0,.19.66,1.25,1.25,0,0,0,.48.46,1.43,1.43,0,0,0,.64.18,1.86,1.86,0,0,0,.33,0l.17,0a1.52,1.52,0,0,0,.89-.7,1.35,1.35,0,0,0,0-1.28,1.44,1.44,0,0,0-.45-.47,1.4,1.4,0,0,0-.43-.2,1.61,1.61,0,0,0-.49-.07,1.59,1.59,0,0,0-.64.16,1.28,1.28,0,0,0-.69.88,1.5,1.5,0,0,0,0,.73,1.68,1.68,0,0,0,.36.62,1.24,1.24,0,0,0,.41.31,1.63,1.63,0,0,0,.52.15,1.5,1.5,0,0,0,.37,0,1.4,1.4,0,0,0,.63-.32l.12-.11a1.48,1.48,0,0,0,.21-.3,1.67,1.67,0,0,0,.2-.69,1.28,1.28,0,0,0-.16-.69,1.45,1.45,0,0,0-2.31-.44,1.48,1.48,0,0,0-.37.61,1.59,1.59,0,0,0,0,.75,1.24,1.24,0,0,0,.26.57.77.77,0,0,0,.72.28,2.66,2.66,0,0,0,.39-.07,2.14,2.14,0,0,0,1.05-.72,2,2,0,0,0,.32-.6.73.73,0,0,0-.07-.58.75.75,0,0,0-.45-.35.78.78,0,0,0-.58.08.85.85,0,0,0-.34.45Z"/><path class="cls-1" d="M240.08,3.72"/><path class="cls-2" d="M240.08,4.47a.75.75,0,0,0,0-1.5.75.75,0,0,0,0,1.5Z"/><path class="cls-1" d="M237.58.85"/><path class="cls-2" d="M237.58,1.6a.75.75,0,0,0,0-1.5.75.75,0,0,0,0,1.5Z"/><path class="cls-1" d="M233.21.75"/><path class="cls-2" d="M233.21,1.5a.75.75,0,0,0,0-1.5.75.75,0,0,0,0,1.5Z"/><path class="cls-1" d="M230.47,5.16"/><path class="cls-2" d="M230.47,5.91a.75.75,0,0,0,0-1.5.75.75,0,0,0,0,1.5Z"/><path class="cls-1" d="M233.3,9.66"/><path class="cls-2" d="M233.3,10.41a.75.75,0,0,0,0-1.5.75.75,0,0,0,0,1.5Z"/><path class="cls-1" d="M238.83,8.32"/><path class="cls-2" d="M238.83,9.07a.75.75,0,0,0,0-1.5.75.75,0,0,0,0,1.5Z"/><path class="cls-1" d="M236.59,64.6a1.27,1.27,0,0,1-1.17.85.73.73,0,0,1,.2-1,.72.72,0,0,1,1,.33.71.71,0,1,0,.09.28.7.7,0,1,0-.08.41c.07.37-.54.6-.75.29s.16-.79.52-.69a.55.55,0,0,1,.19.9.64.64,0,0,1-1-.21"/><path class="cls-2" d="M235.87,64.4s0,0,0,.06l.07-.18a1.18,1.18,0,0,1-.16.29l.12-.16a1.36,1.36,0,0,1-.24.24l.15-.12a1.49,1.49,0,0,1-.3.18l.18-.08a1.68,1.68,0,0,1-.32.09l.2,0h-.13l.65.38a1,1,0,0,1-.08-.14l.08.18a.61.61,0,0,1,0-.18l0,.2V65l0,.2a.72.72,0,0,1,0-.21l-.08.18.1-.17-.12.16a1.14,1.14,0,0,1,.11-.11l-.15.12a.35.35,0,0,1,.13-.08l-.18.07.17,0-.2,0H236l-.2,0a.8.8,0,0,1,.21.05l-.18-.07a.51.51,0,0,1,.16.09l-.15-.12a.49.49,0,0,1,.12.13l-.11-.16a1.28,1.28,0,0,1,.11.2l-.08-.18a1,1,0,0,1,.05.16l0-.2a.54.54,0,0,1,0,.18l0-.2a.73.73,0,0,1-.05.2L236,65a1.18,1.18,0,0,1-.11.19L236,65a.93.93,0,0,1-.14.14L236,65a.67.67,0,0,1-.14.09L236,65l-.15,0,.2,0h-.17l.2,0-.14,0,.18.07A.51.51,0,0,1,236,65l.15.12A1,1,0,0,1,236,65l.11.15A.77.77,0,0,1,236,65l.07.18A1.05,1.05,0,0,1,236,65l0,.2a1.21,1.21,0,0,1,0-.19l0,.2a.94.94,0,0,1,0-.16l-.07.18a.39.39,0,0,1,.06-.11l-.11.15a.52.52,0,0,1,.1-.11l-.15.12.13-.07-.18.07.18,0-.2,0a.88.88,0,0,1,.23,0l-.2,0a.79.79,0,0,1,.22.06l-.18-.07a.64.64,0,0,1,.18.1l-.15-.12a.74.74,0,0,1,.12.13l-.11-.16a.67.67,0,0,1,.06.12l-.07-.18a.83.83,0,0,1,0,.15l0-.2a.33.33,0,0,1,0,.14l0-.2a.74.74,0,0,1,0,.14l.08-.18a1.19,1.19,0,0,1-.09.15l.12-.15a.86.86,0,0,1-.14.13l.15-.12a.76.76,0,0,1-.19.12l.18-.08-.22.06.2,0a.67.67,0,0,1-.2,0l.2,0-.16,0,.18.07a.35.35,0,0,1-.12-.07l.15.12A.38.38,0,0,1,236,65l.11.15s0-.09-.08-.14l.08.18a.42.42,0,0,1,0-.16l0,.2v-.19l0,.2a.79.79,0,0,1,.06-.22l-.08.18a.87.87,0,0,1,.11-.18l-.12.15a.8.8,0,0,1,.13-.13l-.15.12.13-.08-.18.08.15-.05-.2,0h.15l-.2,0,.16.05-.18-.08.16.09-.15-.11a.93.93,0,0,1,.14.14l-.11-.15a1.62,1.62,0,0,1,.1.18l-.08-.18a.66.66,0,0,1,.06.2l0-.2a.54.54,0,0,1,0,.18l0-.2a.74.74,0,0,1,0,.14L236,65l-.06.14a.81.81,0,0,0,0,.51l0-.2a.14.14,0,0,1,0,.09l0-.2a.25.25,0,0,1,0,.07l.08-.18-.05.07.12-.15-.07.07.15-.11-.12.07.18-.08-.14,0,.2,0h-.12l.2,0a.19.19,0,0,1-.1,0l.18.08-.08,0,.15.12-.05,0,.12.15-.05-.08.08.18a.24.24,0,0,1,0-.08l0,.2v-.11l0,.2a.27.27,0,0,1,0-.12l-.08.18a.83.83,0,0,1,.07-.13l-.11.16a.52.52,0,0,1,.1-.11l-.15.12a.41.41,0,0,1,.11-.07l-.18.08a.24.24,0,0,1,.12,0l-.2,0h.09l-.2,0,.1,0-.18-.07.1.05-.15-.11a.6.6,0,0,1,.08.08l-.12-.15a.41.41,0,0,1,.07.11l-.08-.18a.55.55,0,0,1,0,.17l0-.2a.38.38,0,0,1,0,.15l0-.2a.83.83,0,0,1,0,.15l.08-.18-.06.1.12-.15-.09.09.15-.12a.24.24,0,0,1-.11.06l.18-.07-.14,0,.2,0a.49.49,0,0,1-.17,0l.2,0-.18,0,.18.08-.16-.1.15.12-.1-.11.12.16-.06-.1a.74.74,0,0,0-.45-.34.78.78,0,0,0-.58.07.76.76,0,0,0-.34.45.84.84,0,0,0,.07.58,2.27,2.27,0,0,0,.18.25l.09.09a1.76,1.76,0,0,0,.53.31l.12,0a1.12,1.12,0,0,0,.32,0,1.29,1.29,0,0,0,.51-.1,1.22,1.22,0,0,0,.71-.81,1.42,1.42,0,0,0-.11-1l-.06-.1a1.37,1.37,0,0,0-.19-.22,1.17,1.17,0,0,0-.52-.29,1.25,1.25,0,0,0-1.12.33,1.41,1.41,0,0,0-.32.52l0,.11a1.16,1.16,0,0,0,0,.32,1.54,1.54,0,0,0,.09.37,1.15,1.15,0,0,0,.21.33,1,1,0,0,0,.48.29,1.26,1.26,0,0,0,.61,0,.53.53,0,0,0,.12,0,1.34,1.34,0,0,0,.27-.13,1.15,1.15,0,0,0,.4-.42,1,1,0,0,0,.12-.36,1.14,1.14,0,0,0,0-.41l-.07.58a1.42,1.42,0,0,0,.17-.7,1.76,1.76,0,0,0-.2-.7,1.35,1.35,0,0,0-.2-.27.8.8,0,0,0-.13-.13,1.42,1.42,0,0,0-.63-.33,1.31,1.31,0,0,0-.71,0,1.42,1.42,0,0,0-.57.36,1.55,1.55,0,0,0-.42,1.12,1.49,1.49,0,0,0,.19.66,1.35,1.35,0,0,0,.48.47,1.46,1.46,0,0,0,.65.17,3.16,3.16,0,0,0,.32,0l.17,0a1.59,1.59,0,0,0,.9-.71,1.35,1.35,0,0,0,0-1.28,1.44,1.44,0,0,0-.45-.47,1.3,1.3,0,0,0-.43-.2,1.55,1.55,0,0,0-.48-.07,1.6,1.6,0,0,0-.65.16,1.3,1.3,0,0,0-.69.89,1.6,1.6,0,0,0,0,.72,1.72,1.72,0,0,0,.36.63,1.31,1.31,0,0,0,.42.31,1.54,1.54,0,0,0,.52.14,1.46,1.46,0,0,0,.36,0,1.35,1.35,0,0,0,.63-.32.43.43,0,0,0,.12-.11,1.66,1.66,0,0,0,.22-.3,1.61,1.61,0,0,0,.19-.68,1.38,1.38,0,0,0-.15-.7,1.48,1.48,0,0,0-.95-.78A1.43,1.43,0,0,0,235,64a1.63,1.63,0,0,0-.37.62,1.54,1.54,0,0,0,0,.74,1.24,1.24,0,0,0,.26.57.75.75,0,0,0,.72.28,1.76,1.76,0,0,0,.4-.07,2,2,0,0,0,1-.72,2,2,0,0,0,.33-.6.78.78,0,0,0-.08-.58.77.77,0,0,0-.45-.34.71.71,0,0,0-.57.07.87.87,0,0,0-.35.45Z"/><path class="cls-1" d="M240.5,64.46"/><path class="cls-2" d="M240.5,65.21a.75.75,0,0,0,0-1.5.75.75,0,0,0,0,1.5Z"/><path class="cls-1" d="M238,61.58"/><path class="cls-2" d="M238,62.33a.75.75,0,0,0,0-1.5.75.75,0,0,0,0,1.5Z"/><path class="cls-1" d="M233.63,61.48"/><path class="cls-2" d="M233.63,62.23a.75.75,0,0,0,0-1.5.75.75,0,0,0,0,1.5Z"/><path class="cls-1" d="M230.89,65.89"/><path class="cls-2" d="M230.89,66.64a.75.75,0,0,0,0-1.5.75.75,0,0,0,0,1.5Z"/><path class="cls-1" d="M233.72,70.4"/><path class="cls-2" d="M233.72,71.15a.75.75,0,0,0,0-1.5.75.75,0,0,0,0,1.5Z"/><path class="cls-1" d="M239.24,69.05"/><path class="cls-2" d="M239.24,69.8a.75.75,0,0,0,0-1.5.75.75,0,0,0,0,1.5Z"/><path class="cls-1" d="M236.27,128.19a1.31,1.31,0,0,1-1.17.85.72.72,0,0,1,.19-1,.74.74,0,0,1,1,.32.7.7,0,1,0,.09.29.75.75,0,0,1-1.24.53.7.7,0,1,1,1.16-.12c.07.36-.54.6-.75.29a.48.48,0,0,1,.51-.69.55.55,0,0,1,.19.9.63.63,0,0,1-.94-.21"/><path class="cls-2" d="M235.55,128l0,.06.08-.18a1.31,1.31,0,0,1-.17.28l.12-.15a1.25,1.25,0,0,1-.23.23l.15-.11a1.52,1.52,0,0,1-.3.17l.18-.07a1.92,1.92,0,0,1-.32.09l.2,0h-.13l.64.37a.54.54,0,0,1-.07-.13l.07.18a1.21,1.21,0,0,1-.05-.18l0,.2a.67.67,0,0,1,0-.2l0,.2a1.17,1.17,0,0,1,.05-.2l-.07.18a.59.59,0,0,1,.1-.17l-.12.15.11-.11-.16.12.14-.08-.18.08.16,0-.2,0a.67.67,0,0,1,.2,0l-.2,0a.76.76,0,0,1,.2.06l-.18-.08a1,1,0,0,1,.17.1l-.15-.12.12.12-.12-.15a.78.78,0,0,1,.11.2l-.07-.18a.75.75,0,0,1,0,.16l0-.2a.54.54,0,0,1,0,.18l0-.2a1.05,1.05,0,0,1,0,.19l.07-.18a.78.78,0,0,1-.11.2l.12-.15a.93.93,0,0,1-.14.14l.15-.12-.14.08.18-.07-.16,0,.2,0h-.17l.2,0-.14,0,.18.08-.16-.09.15.11-.14-.14.12.15a1.74,1.74,0,0,1-.11-.18l.08.18a.66.66,0,0,1-.06-.2l0,.2a.54.54,0,0,1,0-.18l0,.2a.43.43,0,0,1,0-.16l-.08.18a.75.75,0,0,1,.07-.12l-.12.15a.52.52,0,0,1,.11-.1l-.15.12.12-.08-.18.08a.61.61,0,0,1,.18-.05l-.2,0h.23l-.2,0a.86.86,0,0,1,.23.06l-.18-.08a1,1,0,0,1,.17.1l-.15-.11a.49.49,0,0,1,.13.12l-.12-.15a.47.47,0,0,1,.07.12l-.08-.18a.33.33,0,0,1,0,.14l0-.2v.15l0-.2a.7.7,0,0,1,0,.14l.07-.18a.64.64,0,0,1-.08.14l.11-.15a.86.86,0,0,1-.13.14l.15-.12-.2.11.18-.07a.79.79,0,0,1-.22.06l.2,0h-.19l.2,0a.55.55,0,0,1-.17-.05l.18.08-.12-.07.15.11-.09-.09.12.15a.57.57,0,0,1-.08-.13l.07.18a.94.94,0,0,1,0-.16l0,.2a.6.6,0,0,1,0-.19l0,.2a.79.79,0,0,1,.06-.22l-.07.18a.52.52,0,0,1,.1-.18l-.12.15a.57.57,0,0,1,.14-.13l-.15.11.13-.07-.18.07.15,0-.2,0h.15l-.2,0,.16,0-.18-.07a.46.46,0,0,1,.15.09l-.15-.12a1.06,1.06,0,0,1,.15.15l-.12-.15a.59.59,0,0,1,.1.17l-.07-.17a.59.59,0,0,1,0,.19l0-.2a.54.54,0,0,1,0,.18l0-.19s0,.09,0,.14l.07-.18-.06.14a.85.85,0,0,0,0,.5l0-.2v.09l0-.2s0,0,0,.07l.07-.18a.59.59,0,0,1,0,.08l.11-.15a.46.46,0,0,1-.07.07l.15-.12a.24.24,0,0,1-.12.07l.18-.07-.13,0,.2,0h-.12l.19,0-.1,0,.18.08-.07,0,.15.12,0-.06.11.16s0-.05,0-.08l.07.18s0-.06,0-.09l0,.2a.17.17,0,0,1,0-.1l0,.2,0-.12-.07.18a.33.33,0,0,1,.07-.13l-.12.15.1-.1-.15.12.11-.07-.18.08.12,0-.2,0H236l-.2,0,.1,0-.18-.08.1.06-.15-.12.08.09-.11-.16.06.12-.07-.18a.94.94,0,0,1,0,.16l0-.2v.16l0-.2a.8.8,0,0,1,0,.15l.07-.18a.27.27,0,0,1-.06.1l.12-.15a.34.34,0,0,1-.09.08l.16-.11-.11.06.17-.08-.14,0,.2,0h-.16l.2,0-.18,0,.18.07a.51.51,0,0,1-.16-.09l.15.12-.1-.11.11.15-.06-.09a.77.77,0,0,0-.44-.35.77.77,0,0,0-.93.53.84.84,0,0,0,.08.58,1.31,1.31,0,0,0,.17.24l.09.09a1.46,1.46,0,0,0,.54.31.2.2,0,0,0,.11,0,1.87,1.87,0,0,0,.32,0,1.26,1.26,0,0,0,.51-.11,1.19,1.19,0,0,0,.71-.8,1.36,1.36,0,0,0-.11-1l-.06-.1a2,2,0,0,0-.18-.23,1.18,1.18,0,0,0-1.65,0,1.46,1.46,0,0,0-.32.52l0,.11a1.62,1.62,0,0,0,0,.31,1,1,0,0,0,.09.38,1.12,1.12,0,0,0,.2.33,1.19,1.19,0,0,0,.48.29,1.26,1.26,0,0,0,.61,0l.12,0,.28-.13a1.24,1.24,0,0,0,.4-.42,1,1,0,0,0,.11-.37,1.08,1.08,0,0,0,0-.4l-.08.58a1.34,1.34,0,0,0,.17-.7,1.53,1.53,0,0,0-.19-.7,2.83,2.83,0,0,0-.2-.28l-.14-.13a1.35,1.35,0,0,0-.63-.32,1.15,1.15,0,0,0-.71,0,1.29,1.29,0,0,0-.56.36,1.56,1.56,0,0,0-.43,1.12,1.38,1.38,0,0,0,.2.66,1.22,1.22,0,0,0,.47.46,1.51,1.51,0,0,0,.65.18,1.86,1.86,0,0,0,.33,0l.16,0a1.54,1.54,0,0,0,.9-.7,1.32,1.32,0,0,0-.44-1.75,1.72,1.72,0,0,0-.43-.21,1.65,1.65,0,0,0-.49-.06,1.59,1.59,0,0,0-.64.16,1.26,1.26,0,0,0-.69.88,1.39,1.39,0,0,0,0,.73,1.66,1.66,0,0,0,.35.62,1.39,1.39,0,0,0,.42.31,1.63,1.63,0,0,0,.52.15,1.5,1.5,0,0,0,.37,0,1.4,1.4,0,0,0,.63-.32l.12-.12a3.06,3.06,0,0,0,.21-.29,1.71,1.71,0,0,0,.2-.69,1.44,1.44,0,0,0-.16-.7,1.51,1.51,0,0,0-1-.78,1.47,1.47,0,0,0-1.37.35,1.46,1.46,0,0,0-.36.61,1.55,1.55,0,0,0,0,.74,1.35,1.35,0,0,0,.27.58.78.78,0,0,0,.72.28,2.66,2.66,0,0,0,.39-.07,2.14,2.14,0,0,0,1-.72,2.31,2.31,0,0,0,.32-.6.73.73,0,0,0-.07-.58.75.75,0,0,0-.45-.35.78.78,0,0,0-.58.08.82.82,0,0,0-.34.45Z"/><path class="cls-1" d="M240.17,128"/><path class="cls-2" d="M240.17,128.79a.75.75,0,0,0,0-1.5.75.75,0,0,0,0,1.5Z"/><path class="cls-1" d="M237.67,125.16"/><path class="cls-2" d="M237.67,125.91a.75.75,0,0,0,0-1.5.75.75,0,0,0,0,1.5Z"/><path class="cls-1" d="M233.3,125.07"/><path class="cls-2" d="M233.3,125.82a.75.75,0,0,0,0-1.5.75.75,0,0,0,0,1.5Z"/><path class="cls-1" d="M230.56,129.48"/><path class="cls-2" d="M230.56,130.23a.75.75,0,0,0,0-1.5.75.75,0,0,0,0,1.5Z"/><path class="cls-1" d="M233.39,134"/><path class="cls-2" d="M233.39,134.73a.75.75,0,0,0,0-1.5.75.75,0,0,0,0,1.5Z"/><path class="cls-1" d="M238.92,132.64"/><path class="cls-2" d="M238.92,133.39a.75.75,0,0,0,0-1.5.75.75,0,0,0,0,1.5Z"/><path class="cls-1" d="M6.43,3.87a1.3,1.3,0,0,1-1.17.85.73.73,0,0,1,.19-1,.74.74,0,0,1,1,.32.75.75,0,0,1-.6,1.07.75.75,0,0,1-.63-1,.75.75,0,0,1,1.32.27.74.74,0,0,1-1.23.53.74.74,0,0,1,.46-1.15.73.73,0,0,1,.69,1c.07.37-.54.6-.75.29a.49.49,0,0,1,.52-.69.55.55,0,0,1,.19.9.64.64,0,0,1-1-.21"/><path class="cls-2" d="M5.71,3.67s0,0,0,.06l.07-.18a1.28,1.28,0,0,1-.16.28l.11-.15a1,1,0,0,1-.23.24l.15-.12a1.49,1.49,0,0,1-.3.18l.18-.08A1.68,1.68,0,0,1,5.19,4l.2,0H5.26l.65.37a.57.57,0,0,1-.08-.13l.08.18a.41.41,0,0,1,0-.18l0,.2a.67.67,0,0,1,0-.2l0,.2a.66.66,0,0,1,.06-.2l-.08.18a1,1,0,0,1,.1-.17l-.12.15.11-.1-.15.11L5.9,4.3l-.18.08.17,0-.2,0a.61.61,0,0,1,.19,0l-.2,0,.21.06-.18-.08.16.1-.15-.12.12.12-.11-.15a1.28,1.28,0,0,1,.11.2l-.08-.18a.42.42,0,0,1,0,.16l0-.2v.18l0-.2a.59.59,0,0,1,0,.19l.08-.17-.11.19.11-.15-.14.14.15-.12-.14.08.18-.07a.42.42,0,0,1-.16,0l.2,0H5.76l.2,0a.33.33,0,0,1-.14,0L6,4.39,5.84,4.3,6,4.41a1,1,0,0,1-.15-.14L6,4.42a1,1,0,0,1-.1-.18l.07.18a1.17,1.17,0,0,1,0-.2l0,.2V4.24l0,.2a.42.42,0,0,1,0-.16l-.08.18.07-.12L5.8,4.5a.52.52,0,0,1,.1-.11l-.15.12a.57.57,0,0,1,.13-.08l-.18.08.17,0-.2,0h.24l-.2,0a.79.79,0,0,1,.22.06l-.18-.07a.61.61,0,0,1,.18.09l-.16-.11a.5.5,0,0,1,.13.12L5.78,4.4a.75.75,0,0,1,.07.12l-.07-.18a.57.57,0,0,1,0,.14l0-.2a.38.38,0,0,1,0,.15l0-.2a.74.74,0,0,1,0,.14l.08-.18-.09.14.12-.15a.93.93,0,0,1-.14.14L5.9,4.2a.72.72,0,0,1-.19.11l.17-.07a.79.79,0,0,1-.22.06l.2,0a.6.6,0,0,1-.19,0l.2,0a.49.49,0,0,1-.16,0l.18.08a.35.35,0,0,1-.12-.07l.15.12a.47.47,0,0,1-.1-.1l.12.15a.57.57,0,0,1-.08-.13l.08.18a.47.47,0,0,1,0-.16l0,.2a1.2,1.2,0,0,1,0-.19l0,.2A.79.79,0,0,1,6,4.31l-.08.18A.54.54,0,0,1,6,4.31l-.12.15L6,4.33l-.15.11L6,4.37l-.18.07L6,4.4l-.2,0H5.9l-.2,0,.16,0-.18-.07a.51.51,0,0,1,.16.09l-.15-.12.14.15-.12-.15a.54.54,0,0,1,.11.18l-.08-.18a.6.6,0,0,1,.06.19l0-.2a.6.6,0,0,1,0,.19l0-.2a.74.74,0,0,1,0,.14l.08-.18s0,.09-.07.14a.85.85,0,0,0,0,.5l0-.2a.14.14,0,0,1,0,.09l0-.2a.14.14,0,0,1,0,.07l.08-.17,0,.07.12-.15L5.8,4.5,6,4.38l-.12.08L6,4.38l-.14,0,.2,0a.24.24,0,0,1-.12,0l.2,0-.1,0,.18.08-.08,0,.15.12,0-.06.12.16,0-.08.08.18a.29.29,0,0,1,0-.09l0,.2v-.1l0,.2a.56.56,0,0,1,0-.12L6.33,5a.54.54,0,0,1,.07-.13L6.28,5l.11-.1-.15.12L6.34,5l-.17.08.12,0-.2,0h.09L6,5l.1,0L5.9,5,6,5l-.15-.11L5.93,5l-.12-.15A.41.41,0,0,1,5.88,5L5.8,4.78a.84.84,0,0,1,0,.17l0-.2a.38.38,0,0,1,0,.15l0-.2a.83.83,0,0,1,0,.15l.08-.18-.06.1.11-.15-.08.08L6,4.59l-.11.06.18-.07a.7.7,0,0,1-.14,0l.2,0H6l.2,0a.58.58,0,0,1-.18,0l.18.07A.51.51,0,0,1,6,4.55l.15.12-.1-.11.12.15a.47.47,0,0,1-.06-.09.74.74,0,0,0-1-.27.74.74,0,0,0-.34.45.84.84,0,0,0,.07.58A2.15,2.15,0,0,0,5,5.62l.09.1a1.55,1.55,0,0,0,.53.3.27.27,0,0,0,.12,0,1.65,1.65,0,0,0,.32,0A1.3,1.3,0,0,0,6.57,6a1.21,1.21,0,0,0,.71-.8,1.41,1.41,0,0,0-.11-1l-.06-.1a2.11,2.11,0,0,0-.19-.23,1.15,1.15,0,0,0-.52-.28,1.2,1.2,0,0,0-1.12.33A1.33,1.33,0,0,0,5,4.43l0,.11a1.09,1.09,0,0,0,0,.31A1.51,1.51,0,0,0,5,5.23a1.15,1.15,0,0,0,.21.33,1.07,1.07,0,0,0,.48.29,1.26,1.26,0,0,0,.61,0l.12,0a1.34,1.34,0,0,0,.27-.13,1.15,1.15,0,0,0,.4-.42,1,1,0,0,0,.12-.37,1.09,1.09,0,0,0,0-.4l-.07.58a1.45,1.45,0,0,0,.17-.7,1.71,1.71,0,0,0-.2-.7,1.79,1.79,0,0,0-.2-.28l-.13-.13A1.4,1.4,0,0,0,6.12,3,1.26,1.26,0,0,0,5.4,3a1.46,1.46,0,0,0-.56.36,1.55,1.55,0,0,0-.42,1.12,1.37,1.37,0,0,0,.19.66,1.25,1.25,0,0,0,.48.46,1.47,1.47,0,0,0,.65.18,1.65,1.65,0,0,0,.32,0l.17,0a1.57,1.57,0,0,0,.9-.7,1.35,1.35,0,0,0,0-1.28,1.44,1.44,0,0,0-.45-.47,1.4,1.4,0,0,0-.43-.2A1.55,1.55,0,0,0,5.77,3a1.6,1.6,0,0,0-.65.16A1.28,1.28,0,0,0,4.43,4a1.5,1.5,0,0,0,0,.73,1.68,1.68,0,0,0,.36.62,1.18,1.18,0,0,0,.42.31,1.56,1.56,0,0,0,.52.15,1.46,1.46,0,0,0,.36,0,1.35,1.35,0,0,0,.63-.32l.12-.11a2.1,2.1,0,0,0,.22-.3,1.66,1.66,0,0,0,.19-.69,1.28,1.28,0,0,0-.16-.69,1.45,1.45,0,0,0-2.31-.44,1.48,1.48,0,0,0-.37.61,1.59,1.59,0,0,0,0,.75,1.24,1.24,0,0,0,.26.57.77.77,0,0,0,.72.28,2.44,2.44,0,0,0,.39-.07,2.1,2.1,0,0,0,1-.72,2.08,2.08,0,0,0,.33-.6.78.78,0,0,0-.08-.58.75.75,0,0,0-.45-.35.76.76,0,0,0-.57.08.82.82,0,0,0-.35.45Z"/><path class="cls-1" d="M10.34,3.72"/><path class="cls-2" d="M10.34,4.47a.75.75,0,0,0,0-1.5.75.75,0,0,0,0,1.5Z"/><path class="cls-1" d="M7.83.85"/><path class="cls-2" d="M7.83,1.6a.75.75,0,0,0,0-1.5.75.75,0,0,0,0,1.5Z"/><path class="cls-1" d="M3.47.75"/><path class="cls-2" d="M3.47,1.5a.75.75,0,0,0,0-1.5.75.75,0,0,0,0,1.5Z"/><path class="cls-1" d="M.72,5.16"/><path class="cls-2" d="M.72,5.91a.75.75,0,0,0,0-1.5.75.75,0,0,0,0,1.5Z"/><path class="cls-1" d="M3.55,9.66"/><path class="cls-2" d="M3.55,10.41a.75.75,0,0,0,0-1.5.75.75,0,0,0,0,1.5Z"/><path class="cls-1" d="M9.08,8.32"/><path class="cls-2" d="M9.08,9.07a.75.75,0,0,0,0-1.5.75.75,0,0,0,0,1.5Z"/><path class="cls-1" d="M6.85,64.6a1.3,1.3,0,0,1-1.18.85.73.73,0,0,1,.2-1,.72.72,0,0,1,1,.33.74.74,0,0,1-.6,1.07.75.75,0,0,1-.62-1.06.71.71,0,1,1,.08.8.74.74,0,0,1,.46-1.15.73.73,0,0,1,.69,1c.08.37-.53.6-.75.29s.16-.79.52-.69a.55.55,0,0,1,.19.9.64.64,0,0,1-1-.21"/><path class="cls-2" d="M6.12,64.4a.14.14,0,0,1,0,.06l.08-.18a1.69,1.69,0,0,1-.17.29l.12-.16a1.75,1.75,0,0,1-.23.24l.15-.12a1.92,1.92,0,0,1-.31.18l.18-.08a1.58,1.58,0,0,1-.31.09l.2,0H5.67l.65.38-.08-.14.08.18a.61.61,0,0,1-.05-.18l0,.2a1.28,1.28,0,0,1,0-.19l0,.2a1.29,1.29,0,0,1,.05-.21l-.07.18A.7.7,0,0,1,6.34,65l-.11.16a.52.52,0,0,1,.1-.11l-.15.12A.46.46,0,0,1,6.31,65l-.17.07.16,0-.2,0h.19l-.2,0a.8.8,0,0,1,.21.05l-.18-.07a.7.7,0,0,1,.17.09L6.13,65a.8.8,0,0,1,.13.13L6.14,65a1.28,1.28,0,0,1,.11.2L6.17,65a.49.49,0,0,1,0,.16l0-.2a.54.54,0,0,1,0,.18l0-.2a.76.76,0,0,1-.06.2L6.24,65a1.18,1.18,0,0,1-.11.19L6.25,65a1,1,0,0,1-.15.14L6.26,65l-.14.09L6.29,65l-.15,0,.2,0H6.17l.2,0-.14,0,.18.07A.51.51,0,0,1,6.25,65l.15.12A1,1,0,0,1,6.26,65l.12.15A.54.54,0,0,1,6.27,65l.08.18A.6.6,0,0,1,6.29,65l0,.2a.61.61,0,0,1,0-.19l0,.2a.94.94,0,0,1,0-.16l-.07.18a.41.41,0,0,1,.07-.11l-.12.15a.57.57,0,0,1,.11-.11l-.16.12.13-.07-.18.07.18,0-.2,0a.89.89,0,0,1,.23,0l-.2,0a1,1,0,0,1,.23.06l-.18-.07a.59.59,0,0,1,.17.1l-.15-.12a.8.8,0,0,1,.13.13l-.12-.16a.75.75,0,0,1,.07.12l-.08-.18a.83.83,0,0,1,0,.15l0-.2a.33.33,0,0,1,0,.14l0-.2a.74.74,0,0,1,0,.14l.08-.18a.6.6,0,0,1-.09.15l.12-.15a.58.58,0,0,1-.14.13l.16-.12a1.06,1.06,0,0,1-.2.12L6.3,65a.9.9,0,0,1-.22.06l.2,0a.6.6,0,0,1-.19,0l.2,0-.17,0,.18.07L6.18,65l.15.12L6.24,65l.12.15A.39.39,0,0,1,6.28,65l.07.18a.75.75,0,0,1,0-.16l0,.2a.61.61,0,0,1,0-.19l0,.2A.79.79,0,0,1,6.37,65l-.08.18A1.74,1.74,0,0,1,6.4,65l-.12.15a.86.86,0,0,1,.14-.13l-.16.12.14-.08-.18.08a.66.66,0,0,1,.15-.05l-.2,0h.14l-.19,0,.15.05-.18-.08.16.09-.15-.11a1,1,0,0,1,.15.14l-.12-.15a1.62,1.62,0,0,1,.1.18l-.07-.18a1.17,1.17,0,0,1,0,.2l0-.2v.18l0-.2a.37.37,0,0,1,0,.14L6.25,65l-.06.14a.81.81,0,0,0,0,.51l0-.2v.09l0-.2a.25.25,0,0,1,0,.07l.08-.18,0,.07.11-.15a.23.23,0,0,1-.07.07l.15-.11-.12.07.18-.08-.13,0,.2,0H6.36l.2,0-.1,0,.18.08a.18.18,0,0,1-.07,0l.15.12-.06,0,.12.15a.3.3,0,0,1,0-.08l.07.18a.24.24,0,0,1,0-.08l0,.2a.41.41,0,0,1,0-.11l0,.2a.27.27,0,0,1,0-.12l-.08.18.08-.13-.12.16a.52.52,0,0,1,.1-.11l-.15.12a.41.41,0,0,1,.11-.07l-.18.08a.27.27,0,0,1,.12,0l-.2,0h.09l-.2,0,.1,0-.18-.07a.31.31,0,0,1,.1.05l-.15-.11a.3.3,0,0,1,.08.08l-.12-.15a.41.41,0,0,1,.07.11l-.07-.18a1,1,0,0,1,0,.17l0-.2a.76.76,0,0,1,0,.15l0-.2a.42.42,0,0,1,0,.15l.08-.18-.06.1.12-.15-.09.09.15-.12a.24.24,0,0,1-.11.06l.18-.07-.14,0,.2,0a.43.43,0,0,1-.16,0l.2,0-.18,0,.18.08-.16-.1.15.12a.57.57,0,0,1-.11-.11l.12.16-.06-.1A.74.74,0,0,0,6.08,65a.75.75,0,0,0-.57.07.78.78,0,0,0-.35.45.84.84,0,0,0,.08.58,1.38,1.38,0,0,0,.17.25l.09.09a1.89,1.89,0,0,0,.53.31l.12,0a1.16,1.16,0,0,0,.32,0,1.25,1.25,0,0,0,.51-.1,1.22,1.22,0,0,0,.71-.81,1.37,1.37,0,0,0-.11-1l-.06-.1a1,1,0,0,0-.19-.22,1.13,1.13,0,0,0-.51-.29,1.26,1.26,0,0,0-1.13.33,1.56,1.56,0,0,0-.32.52l0,.11a1.15,1.15,0,0,0,0,.32A1.17,1.17,0,0,0,5.4,66a1.42,1.42,0,0,0,.21.33,1.09,1.09,0,0,0,.48.29,1.26,1.26,0,0,0,.61,0,.53.53,0,0,0,.12,0,1.34,1.34,0,0,0,.27-.13A1.18,1.18,0,0,0,7.5,66a1.15,1.15,0,0,0,.11-.36,1.42,1.42,0,0,0,0-.41l-.08.58a1.32,1.32,0,0,0,.17-.7,1.59,1.59,0,0,0-.19-.7,1.39,1.39,0,0,0-.21-.27A.8.8,0,0,0,7.16,64a1.37,1.37,0,0,0-.63-.33,1.32,1.32,0,0,0-.71,0,1.49,1.49,0,0,0-.57.36,1.6,1.6,0,0,0-.42,1.12,1.38,1.38,0,0,0,.2.66,1.32,1.32,0,0,0,.47.47,1.5,1.5,0,0,0,.65.17c.11,0,.22,0,.33,0l.16,0a1.59,1.59,0,0,0,.9-.71A1.32,1.32,0,0,0,7.1,64a1.35,1.35,0,0,0-.44-.2,1.48,1.48,0,0,0-1.12.09,1.25,1.25,0,0,0-.69.89,1.46,1.46,0,0,0,0,.72,1.88,1.88,0,0,0,.36.63,1.43,1.43,0,0,0,.42.31,1.54,1.54,0,0,0,.52.14,1.58,1.58,0,0,0,.37,0,1.32,1.32,0,0,0,.62-.32.43.43,0,0,0,.12-.11,1.66,1.66,0,0,0,.22-.3,1.61,1.61,0,0,0,.19-.68,1.38,1.38,0,0,0-.15-.7,1.48,1.48,0,0,0-1-.78A1.43,1.43,0,0,0,5.22,64a1.49,1.49,0,0,0-.36.62,1.43,1.43,0,0,0,0,.74,1.37,1.37,0,0,0,.27.57.74.74,0,0,0,.72.28,1.78,1.78,0,0,0,.39-.07,2,2,0,0,0,1-.72,2.16,2.16,0,0,0,.32-.6.78.78,0,0,0-.07-.58.81.81,0,0,0-.45-.34.73.73,0,0,0-.58.07.87.87,0,0,0-.35.45Z"/><path class="cls-1" d="M10.75,64.46"/><path class="cls-2" d="M10.75,65.21a.75.75,0,0,0,0-1.5.75.75,0,0,0,0,1.5Z"/><path class="cls-1" d="M8.24,61.58"/><path class="cls-2" d="M8.24,62.33a.75.75,0,0,0,0-1.5.75.75,0,0,0,0,1.5Z"/><path class="cls-1" d="M3.88,61.48"/><path class="cls-2" d="M3.88,62.23a.75.75,0,0,0,0-1.5.75.75,0,0,0,0,1.5Z"/><path class="cls-1" d="M1.14,65.89"/><path class="cls-2" d="M1.14,66.64a.75.75,0,0,0,0-1.5.75.75,0,0,0,0,1.5Z"/><path class="cls-1" d="M4,70.4"/><path class="cls-2" d="M4,71.15a.75.75,0,0,0,0-1.5.75.75,0,0,0,0,1.5Z"/><path class="cls-1" d="M9.49,69.05"/><path class="cls-2" d="M9.49,69.8a.75.75,0,0,0,0-1.5.75.75,0,0,0,0,1.5Z"/><path class="cls-1" d="M6.52,128.19a1.31,1.31,0,0,1-1.17.85.73.73,0,0,1,.19-1,.74.74,0,0,1,1,.32.75.75,0,0,1-.6,1.07.74.74,0,0,1-.63-1.05.71.71,0,1,1,.08.8A.74.74,0,0,1,5.86,128a.74.74,0,0,1,.69,1c.07.36-.54.6-.75.29a.49.49,0,0,1,.52-.69.56.56,0,0,1,.19.9.64.64,0,0,1-1-.21"/><path class="cls-2" d="M5.8,128l0,.06.08-.18a1,1,0,0,1-.17.28L5.8,128a1,1,0,0,1-.23.23l.15-.11a1.11,1.11,0,0,1-.3.17l.18-.07a1.68,1.68,0,0,1-.32.09l.2,0H5.35l.65.37a.57.57,0,0,1-.08-.13l.07.18a1.21,1.21,0,0,1,0-.18l0,.2a.67.67,0,0,1,0-.2l0,.2a.66.66,0,0,1,.06-.2l-.08.18a1,1,0,0,1,.1-.17l-.12.15.11-.11-.15.12a.57.57,0,0,1,.13-.08l-.18.08.17,0-.2,0a.6.6,0,0,1,.19,0l-.2,0a.66.66,0,0,1,.2.06l-.18-.08a1,1,0,0,1,.17.1l-.15-.12.12.12-.12-.15a.78.78,0,0,1,.11.2l-.07-.18a.75.75,0,0,1,0,.16l0-.2a1.09,1.09,0,0,1,0,.18l0-.2a1.05,1.05,0,0,1,0,.19l.07-.18a.56.56,0,0,1-.11.2l.12-.15a.93.93,0,0,1-.14.14l.15-.12-.14.08.18-.07-.16,0,.2,0H5.84l.2,0-.14,0,.18.08-.16-.09.16.11a.67.67,0,0,1-.15-.14l.12.15a.81.81,0,0,1-.1-.18l.07.18a.65.65,0,0,1,0-.2l0,.2a.54.54,0,0,1,0-.18l0,.2a.75.75,0,0,1,0-.16l-.08.18a.75.75,0,0,1,.07-.12l-.12.15a.52.52,0,0,1,.11-.1l-.15.12a.57.57,0,0,1,.13-.08l-.18.08a.48.48,0,0,1,.17-.05l-.2,0H6l-.19,0a.9.9,0,0,1,.22.06l-.18-.08a1,1,0,0,1,.17.1l-.15-.11a.49.49,0,0,1,.13.12l-.12-.15a.47.47,0,0,1,.07.12l-.08-.18a.58.58,0,0,1,0,.14l0-.2v.15l0-.2a.74.74,0,0,1,0,.14l.07-.18a.64.64,0,0,1-.08.14L6,128.5a.86.86,0,0,1-.13.14l.15-.12-.2.11.18-.07a.79.79,0,0,1-.22.06l.2,0H5.76l.2,0a.43.43,0,0,1-.16-.05l.17.08-.12-.07.16.11a.28.28,0,0,1-.1-.09l.12.15a.57.57,0,0,1-.08-.13l.08.18a1,1,0,0,1,0-.16l0,.2a.6.6,0,0,1,0-.19l0,.2a.79.79,0,0,1,.06-.22l-.07.18a.77.77,0,0,1,.1-.18l-.11.15a.53.53,0,0,1,.13-.13l-.15.11.13-.07-.18.07.15,0-.2,0H6l-.2,0,.16,0-.18-.07a.51.51,0,0,1,.16.09l-.15-.12a1,1,0,0,1,.14.15l-.12-.15a1,1,0,0,1,.11.17l-.08-.17a.6.6,0,0,1,.06.19l0-.2a.54.54,0,0,1,0,.18l0-.19a1,1,0,0,1,0,.14l.07-.18-.06.14a.78.78,0,0,0,0,.5l0-.2v.09l0-.2a.64.64,0,0,1,0,.07l.07-.18a.2.2,0,0,1,0,.08l.12-.15-.08.07L6,128.7a.37.37,0,0,1-.12.07l.18-.07-.14,0,.2,0H6l.2,0-.1,0,.18.08-.08,0,.15.12,0-.06.12.16a.35.35,0,0,1,0-.08l.08.18,0-.09,0,.2v-.1l0,.2,0-.12-.07.18a.54.54,0,0,1,.07-.13l-.12.15a.52.52,0,0,1,.11-.1l-.16.12.11-.07-.18.08.12,0-.2,0h.09l-.2,0,.11,0L6,129.29l.1.06-.16-.12.09.09-.12-.16a.75.75,0,0,1,.07.12l-.08-.18a1,1,0,0,1,.05.16l0-.2v.16l0-.2a.83.83,0,0,1,0,.15L6,129l0,.1.11-.15L6,129l.15-.11L6,129l.18-.08-.14,0,.2,0H6.06l.2,0-.18,0,.18.07a.51.51,0,0,1-.16-.09l.15.12-.1-.11.11.15a.41.41,0,0,1,0-.09.82.82,0,0,0-.45-.35.78.78,0,0,0-.58.08.74.74,0,0,0-.34.45.84.84,0,0,0,.07.58,1.37,1.37,0,0,0,.18.24.2.2,0,0,0,.09.09,1.35,1.35,0,0,0,.53.31.27.27,0,0,0,.12,0,1.65,1.65,0,0,0,.31,0,1.31,1.31,0,0,0,.52-.11,1.24,1.24,0,0,0,.71-.8,1.42,1.42,0,0,0-.12-1,.21.21,0,0,0-.06-.1,1.3,1.3,0,0,0-.18-.23,1.15,1.15,0,0,0-.52-.28,1.2,1.2,0,0,0-1.12.33,1.23,1.23,0,0,0-.32.52.23.23,0,0,0,0,.11,1.09,1.09,0,0,0,0,.31,1.18,1.18,0,0,0,.09.38,1,1,0,0,0,.21.33,1.07,1.07,0,0,0,.48.29,1.22,1.22,0,0,0,.6,0l.12,0a1.82,1.82,0,0,0,.28-.13,1.15,1.15,0,0,0,.4-.42,1,1,0,0,0,.12-.37,1.08,1.08,0,0,0,0-.4l-.07.58a1.45,1.45,0,0,0,.17-.7,1.67,1.67,0,0,0-.2-.7,1.79,1.79,0,0,0-.2-.28l-.13-.13a1.4,1.4,0,0,0-.63-.32,1.18,1.18,0,0,0-.72,0,1.29,1.29,0,0,0-.56.36,1.51,1.51,0,0,0-.42,1.12,1.27,1.27,0,0,0,.19.66,1.25,1.25,0,0,0,.48.46,1.43,1.43,0,0,0,.64.18,1.86,1.86,0,0,0,.33,0l.17,0a1.52,1.52,0,0,0,.89-.7,1.35,1.35,0,0,0,0-1.28,1.44,1.44,0,0,0-.45-.47,1.72,1.72,0,0,0-.43-.21,1.58,1.58,0,0,0-1.13.1,1.26,1.26,0,0,0-.69.88,1.5,1.5,0,0,0,0,.73,1.68,1.68,0,0,0,.36.62,1.18,1.18,0,0,0,.42.31,1.5,1.5,0,0,0,.51.15,1.5,1.5,0,0,0,.37,0,1.4,1.4,0,0,0,.63-.32l.12-.12a1.42,1.42,0,0,0,.21-.29,1.71,1.71,0,0,0,.2-.69,1.33,1.33,0,0,0-.16-.7,1.46,1.46,0,0,0-1-.78,1.45,1.45,0,0,0-1.36.35,1.48,1.48,0,0,0-.37.61,1.55,1.55,0,0,0,0,.74,1.23,1.23,0,0,0,.26.58.79.79,0,0,0,.72.28,2.66,2.66,0,0,0,.39-.07,2.14,2.14,0,0,0,1-.72,2,2,0,0,0,.32-.6.73.73,0,0,0-.07-.58.75.75,0,0,0-.45-.35.78.78,0,0,0-.58.08.82.82,0,0,0-.34.45Z"/><path class="cls-1" d="M10.42,128"/><path class="cls-2" d="M10.42,128.79a.75.75,0,0,0,0-1.5.75.75,0,0,0,0,1.5Z"/><path class="cls-1" d="M7.92,125.16"/><path class="cls-2" d="M7.92,125.91a.75.75,0,0,0,0-1.5.75.75,0,0,0,0,1.5Z"/><path class="cls-1" d="M3.55,125.07"/><path class="cls-2" d="M3.55,125.82a.75.75,0,0,0,0-1.5.75.75,0,0,0,0,1.5Z"/><path class="cls-1" d="M.81,129.48"/><path class="cls-2" d="M.81,130.23a.75.75,0,0,0,0-1.5.75.75,0,0,0,0,1.5Z"/><path class="cls-1" d="M3.64,134"/><path class="cls-2" d="M3.64,134.73a.75.75,0,0,0,0-1.5.75.75,0,0,0,0,1.5Z"/><path class="cls-1" d="M9.17,132.64"/><path class="cls-2" d="M9.17,133.39a.75.75,0,0,0,0-1.5.75.75,0,0,0,0,1.5Z"/></g></g></svg>